PathFileType	4	(X/Y/Z)	E:\3-PhD\Data\MocapData\ElaboratedData\009\pre\dynamicElaborations\RunA2\RunA2.trc
DataRate	CameraRate	NumFrames	NumMarkers	Units	OrigDataRate	DataStartFrame
200	200	4	54	mm	200	289
Frame#	Time	FHD			LBHD			RBHD			C7			T10			CLAV			LSHO			LUUPA			LMUPA			LDUPA			LLEP			LMEP			LRAD			LUL			LRFIN			RSHO			RUPA1			RMUPA			RDUPA			RLEP			RMEP			RRAD			RUL			RUFIN			RASI			USACR			LSACR			RSACR			LTHI1			LTHI2			LTHI3			LTHI4			LTIB1			LTIB2			LTIB3			LTIB4			LLMAL			LHEE			LMT1			LMT2			RTHI			RTHI2			RTHI3			RTHI4			RLFC			RTIB1			RTIB2			RTIB3			RTIB4			RLMAL			RHEE			RMT1			RMT2			RMT5		
		X1	Y1	Z1	X2	Y2	Z2	X3	Y3	Z3	X4	Y4	Z4	X5	Y5	Z5	X6	Y6	Z6	X7	Y7	Z7	X8	Y8	Z8	X9	Y9	Z9	X10	Y10	Z10	X11	Y11	Z11	X12	Y12	Z12	X13	Y13	Z13	X14	Y14	Z14	X15	Y15	Z15	X16	Y16	Z16	X17	Y17	Z17	X18	Y18	Z18	X19	Y19	Z19	X20	Y20	Z20	X21	Y21	Z21	X22	Y22	Z22	X23	Y23	Z23	X24	Y24	Z24	X25	Y25	Z25	X26	Y26	Z26	X27	Y27	Z27	X28	Y28	Z28	X29	Y29	Z29	X30	Y30	Z30	X31	Y31	Z31	X32	Y32	Z32	X33	Y33	Z33	X34	Y34	Z34	X35	Y35	Z35	X36	Y36	Z36	X37	Y37	Z37	X38	Y38	Z38	X39	Y39	Z39	X40	Y40	Z40	X41	Y41	Z41	X42	Y42	Z42	X43	Y43	Z43	X44	Y44	Z44	X45	Y45	Z45	X46	Y46	Z46	X47	Y47	Z47	X48	Y48	Z48	X49	Y49	Z49	X50	Y50	Z50	X51	Y51	Z51	X52	Y52	Z52	X53	Y53	Z53	X54	Y54	Z54	

311	1.550000	-251.214080	1476.291235	-125.156351	-451.593603	1470.831235	-99.857461	-350.145157	1466.636021	-23.098034	-480.792374	1354.852929	-49.489380	-672.949634	1061.637502	22.892620	-397.077856	1211.514682	-91.903433	-472.464974	1263.780804	-224.416005	-659.303013	1197.466016	-273.951760	-660.749699	1147.525411	-270.938757	-719.472307	1163.468998	-279.171511	-827.475196	1110.636095	-271.803106	-841.369656	1126.342415	-199.426387	-874.037056	865.244970	-184.993631	-943.408504	878.441070	-209.719704	-893.576531	785.539923	-193.853563	-350.858018	1297.522527	66.559105	-352.549022	1167.650796	188.184882	-326.012424	1131.830344	177.040326	-347.975023	1111.738350	228.584549	-336.540413	980.720752	268.719630	-392.096928	947.699587	231.345946	-195.757966	1007.188555	54.721453	-163.506849	952.750307	79.490607	-123.674202	1037.212386	47.101032	-500.133350	896.484742	135.423163	-706.437745	968.478867	50.934684	-718.751882	930.314074	35.947894	-699.617687	947.832363	89.241959	-566.519779	651.745370	-157.898307	-497.037355	639.756636	-207.142959	-479.610420	682.604097	-220.922613	-455.550542	594.238196	-203.976061	-243.582304	424.795092	-156.867508	-308.062786	373.987803	-123.868559	-266.629645	377.088484	-133.926663	-230.040794	334.460798	-68.880344	-251.020798	219.131670	43.124493	-277.945910	224.605702	141.495754	-87.841569	195.166035	26.378144	-114.445608	172.899380	-5.312808	-555.564996	700.544124	305.581808	-528.531578	643.156658	318.937736	-499.666143	632.956525	306.140907	-573.009965	573.674501	344.932196	-574.635204	465.978007	377.402059	-638.592747	259.499715	434.675554	-718.333788	251.081413	508.520229	-688.367696	219.205846	491.462430	-716.836220	169.415343	483.171978	-796.883974	137.321699	561.685948	-888.892994	104.848301	558.605447	-680.463067	54.468637	487.412601	-669.679223	54.344004	526.193234	-697.799989	38.165584	591.326624	
312	1.555000	-227.065767	1477.960949	-136.984254	-427.443262	1473.462057	-112.135314	-326.124727	1468.218922	-35.293172	-456.498032	1356.051344	-60.423491	-645.212817	1061.938429	16.676968	-372.868818	1213.690725	-105.212780	-451.907584	1266.159144	-235.911580	-639.856060	1202.630886	-280.986322	-641.875120	1152.666721	-278.713076	-700.593249	1169.529792	-285.054398	-809.402889	1117.810259	-274.776462	-820.949775	1132.852644	-201.875226	-850.056236	871.152845	-188.925498	-920.518096	883.771872	-210.866688	-869.100669	791.220732	-197.954427	-324.163162	1300.429862	51.818207	-322.425746	1169.669891	172.485475	-295.859826	1134.262103	160.243578	-316.564063	1113.336475	212.034806	-303.320302	981.995717	250.264742	-359.460763	948.839529	213.278535	-170.553534	1017.469730	32.479711	-135.768154	963.529453	54.516021	-99.611229	1050.003452	22.472364	-472.325199	896.034594	129.060496	-678.141877	969.581171	45.294897	-690.905053	931.413321	30.660952	-670.999471	949.027075	83.620761	-541.107039	651.520912	-163.134587	-471.663920	639.033465	-212.221091	-454.737422	681.810959	-226.814567	-429.818118	593.927315	-208.215148	-210.079923	426.700888	-165.759151	-270.939458	372.238080	-131.799399	-230.027661	377.393409	-143.347545	-189.176426	335.293923	-80.384710	-201.466890	216.764478	30.238430	-226.810357	220.865479	128.780012	-37.046063	198.083540	11.338772	-63.117075	174.934490	-20.034225	-535.160328	701.719232	299.769643	-510.661535	643.193873	313.377919	-482.311582	631.911494	300.744467	-558.293960	576.015710	339.888414	-564.962289	468.864242	373.260656	-632.357556	263.452317	431.770989	-711.757226	256.743163	506.118532	-682.285517	224.253772	489.146391	-711.403604	174.804374	481.443729	-791.799499	143.948763	560.048450	-884.603008	114.983909	557.486475	-679.851769	53.638592	487.456764	-668.642890	54.124843	526.151303	-697.003363	39.816389	591.141782	
313	1.560000	-202.970885	1479.811433	-148.973192	-403.348473	1476.300618	-124.734439	-302.235537	1470.009286	-47.722000	-432.231077	1357.440630	-71.591538	-617.268154	1062.511208	10.438703	-348.720185	1216.082069	-118.631354	-431.170759	1268.633550	-247.490394	-619.945274	1207.785347	-288.103876	-622.556212	1157.836850	-286.405876	-681.183707	1175.571578	-290.914775	-790.713997	1124.966096	-277.621797	-799.871975	1139.289937	-204.300795	-825.266878	876.974664	-193.332188	-896.717625	888.955082	-212.334702	-843.763346	796.815210	-202.778390	-297.666485	1303.554294	36.958380	-292.789519	1172.038456	156.746571	-266.333198	1136.958896	143.359990	-285.784193	1115.310902	195.448049	-271.136791	983.725256	232.007106	-327.949649	950.502116	195.447997	-146.497277	1027.459919	10.946620	-109.419514	974.073216	30.284769	-76.761427	1062.298480	-1.353200	-444.323108	895.570592	122.221290	-649.587018	970.989808	39.637215	-662.845945	932.820724	25.418270	-641.942111	950.518642	77.956087	-515.565338	651.316516	-168.555683	-446.116917	637.999249	-217.297070	-429.487379	680.612897	-232.662332	-404.126674	593.142232	-212.348708	-177.410693	428.065849	-174.429252	-234.622652	370.319307	-139.601904	-194.359845	377.395007	-152.609672	-149.426184	335.922055	-91.870093	-153.160947	214.684769	17.089448	-176.790554	217.660546	115.745071	12.266991	200.754835	-3.878093	-13.275917	176.772464	-34.929323	-514.054676	703.280945	293.421622	-492.108692	643.678690	307.138114	-464.358530	631.319022	294.556035	-542.774660	578.932210	334.221745	-554.555822	472.501561	368.264871	-625.339956	268.194489	428.180865	-704.393683	263.078599	502.981225	-675.351688	230.032220	486.137624	-704.996789	180.870696	479.073095	-785.857963	151.274006	557.824312	-879.195124	126.006848	555.387022	-679.101542	52.732593	487.347356	-667.460345	54.004161	525.944773	-696.032621	41.990653	590.753487	
314	1.565000	-178.943748	1481.774281	-161.116210	-379.322873	1479.240918	-137.614004	-278.479489	1471.932645	-60.358576	-407.977094	1358.968852	-82.975671	-589.179924	1063.344934	4.126814	-324.641500	1218.598953	-132.075528	-410.202546	1271.071841	-259.130923	-599.569073	1212.837069	-295.310264	-602.789551	1162.939406	-294.030937	-661.244907	1181.523192	-296.736102	-771.398234	1132.024230	-280.361580	-778.117263	1145.555620	-206.729087	-799.691825	882.645643	-198.218980	-872.020064	893.907001	-214.148931	-817.590234	802.259412	-208.308172	-271.323044	1306.815337	22.054758	-263.581165	1174.673277	141.039563	-237.393357	1139.816281	126.475523	-255.594684	1117.579958	178.921536	-239.974355	985.812686	214.099039	-297.548534	952.600938	178.014415	-123.429297	1036.962566	-9.806026	-84.332262	984.159630	6.928714	-54.957226	1073.875995	-24.285853	-416.198198	895.142040	114.870483	-620.866648	972.670309	33.848959	-634.643681	934.506674	20.082926	-612.553489	952.262031	72.125508	-489.886299	651.077641	-174.183084	-420.384231	636.646679	-222.390386	-403.845523	679.016575	-238.459072	-378.452928	591.880811	-216.410317	-145.631663	428.823702	-182.821489	-199.233562	368.186590	-147.179211	-159.723182	377.025993	-161.612150	-110.923553	336.248343	-103.219118	-106.322993	212.795481	3.843179	-128.072387	214.884905	102.569018	59.897596	203.085240	-19.216622	34.846322	178.316131	-49.929577	-492.201213	705.191232	286.551807	-472.776379	644.595391	300.255355	-445.690131	631.186093	287.625249	-526.301767	582.345604	327.947968	-543.168692	476.804388	362.455877	-617.309755	273.645841	423.897345	-696.082408	270.025778	499.049708	-667.396504	236.474185	482.395736	-697.450652	187.540081	475.983145	-778.921239	159.255223	554.860738	-872.524201	137.872138	552.074274	-678.136265	51.842292	487.031523	-666.086907	54.044999	525.517951	-694.871386	44.763539	590.073111	
